<svg xmlns="http://www.w3.org/2000/svg" xmlns:xlink="http://www.w3.org/1999/xlink" width="500" zoomAndPan="magnify" viewBox="0 0 375 374.999991" height="500" preserveAspectRatio="xMidYMid meet" version="1.0"><defs><clipPath id="443871a562"><path d="M 12.375 31 L 362.625 31 L 362.625 343 L 12.375 343 Z M 12.375 31 " clip-rule="nonzero"/></clipPath></defs><g clip-path="url(#443871a562)"><path fill="#00d8ff" d="M 300.117188 132.734375 C 296.5 131.488281 292.742188 130.308594 288.867188 129.191406 C 289.507812 126.597656 290.09375 124.035156 290.613281 121.519531 C 299.121094 80.191406 293.5625 46.898438 274.542969 35.9375 C 256.300781 25.425781 226.480469 36.386719 196.363281 62.585938 C 193.46875 65.105469 190.558594 67.769531 187.664062 70.566406 C 185.726562 68.71875 183.800781 66.929688 181.875 65.21875 C 150.308594 37.207031 118.667969 25.398438 99.671875 36.394531 C 81.453125 46.933594 76.058594 78.234375 83.726562 117.398438 C 84.464844 121.183594 85.332031 125.046875 86.308594 128.976562 C 81.832031 130.246094 77.507812 131.597656 73.371094 133.039062 C 36.367188 145.9375 12.734375 166.148438 12.734375 187.117188 C 12.734375 208.761719 38.105469 230.488281 76.648438 243.660156 C 79.6875 244.695312 82.847656 245.679688 86.097656 246.605469 C 85.042969 250.851562 84.125 255.015625 83.355469 259.082031 C 76.042969 297.566406 81.753906 328.125 99.921875 338.59375 C 118.6875 349.417969 150.183594 338.292969 180.851562 311.503906 C 183.28125 309.386719 185.710938 307.136719 188.140625 304.789062 C 191.308594 307.816406 194.464844 310.699219 197.589844 313.398438 C 227.300781 338.949219 256.644531 349.265625 274.789062 338.769531 C 293.535156 327.921875 299.636719 295.085938 291.71875 255.152344 C 291.117188 252.09375 290.410156 248.980469 289.628906 245.816406 C 291.84375 245.160156 294.011719 244.476562 296.128906 243.78125 C 336.203125 230.503906 362.269531 209.0625 362.269531 187.117188 C 362.269531 166.074219 337.867188 145.726562 300.117188 132.734375 Z M 291.433594 229.617188 C 289.519531 230.242188 287.554688 230.859375 285.5625 231.445312 C 281.136719 217.457031 275.171875 202.566406 267.851562 187.183594 C 274.828125 172.171875 280.5625 157.476562 284.863281 143.570312 C 288.441406 144.605469 291.910156 145.695312 295.253906 146.847656 C 327.601562 157.976562 347.332031 174.4375 347.332031 187.117188 C 347.332031 200.613281 326.03125 218.152344 291.433594 229.617188 Z M 277.070312 258.042969 C 280.578125 275.703125 281.070312 291.671875 278.75 304.160156 C 276.671875 315.378906 272.480469 322.859375 267.304688 325.847656 C 256.289062 332.21875 232.734375 323.9375 207.339844 302.085938 C 204.417969 299.574219 201.480469 296.898438 198.546875 294.074219 C 208.390625 283.304688 218.234375 270.792969 227.847656 256.882812 C 244.738281 255.394531 260.699219 252.941406 275.183594 249.597656 C 275.894531 252.476562 276.523438 255.289062 277.070312 258.042969 Z M 131.902344 324.742188 C 121.140625 328.550781 112.570312 328.65625 107.386719 325.667969 C 96.363281 319.308594 91.777344 294.769531 98.03125 261.867188 C 98.746094 258.097656 99.597656 254.222656 100.582031 250.265625 C 114.898438 253.429688 130.746094 255.710938 147.683594 257.074219 C 157.359375 270.683594 167.488281 283.183594 177.6875 294.128906 C 175.464844 296.285156 173.238281 298.332031 171.027344 300.257812 C 157.46875 312.117188 143.878906 320.523438 131.902344 324.742188 Z M 81.484375 229.535156 C 64.4375 223.707031 50.363281 216.144531 40.714844 207.875 C 32.046875 200.464844 27.667969 193.09375 27.667969 187.117188 C 27.667969 174.394531 46.644531 158.164062 78.292969 147.136719 C 82.132812 145.796875 86.152344 144.535156 90.324219 143.351562 C 94.699219 157.570312 100.4375 172.445312 107.359375 187.472656 C 100.347656 202.730469 94.527344 217.835938 90.109375 232.234375 C 87.136719 231.375 84.253906 230.476562 81.484375 229.535156 Z M 98.382812 114.535156 C 91.816406 80.976562 96.175781 55.664062 107.15625 49.3125 C 118.847656 42.542969 144.707031 52.191406 171.953125 76.382812 C 173.703125 77.929688 175.449219 79.546875 177.210938 81.21875 C 167.050781 92.121094 157.015625 104.527344 147.429688 118.050781 C 130.988281 119.574219 115.253906 122.019531 100.785156 125.296875 C 99.878906 121.640625 99.070312 118.046875 98.382812 114.535156 Z M 249.148438 151.746094 C 245.695312 145.777344 242.144531 139.945312 238.527344 134.273438 C 249.679688 135.683594 260.359375 137.554688 270.394531 139.84375 C 267.390625 149.496094 263.636719 159.585938 259.210938 169.933594 C 256.042969 163.910156 252.683594 157.84375 249.148438 151.746094 Z M 187.664062 91.886719 C 194.5625 99.34375 201.457031 107.671875 208.242188 116.707031 C 201.402344 116.386719 194.480469 116.21875 187.5 116.21875 C 180.59375 116.21875 173.726562 116.378906 166.925781 116.699219 C 173.710938 107.746094 180.675781 99.429688 187.664062 91.886719 Z M 125.789062 151.851562 C 122.335938 157.839844 119.042969 163.871094 115.921875 169.917969 C 111.574219 159.609375 107.855469 149.472656 104.816406 139.6875 C 114.789062 137.457031 125.421875 135.632812 136.503906 134.25 C 132.832031 139.972656 129.253906 145.84375 125.789062 151.851562 Z M 136.824219 241.039062 C 125.375 239.769531 114.578125 238.035156 104.609375 235.867188 C 107.695312 225.902344 111.5 215.558594 115.941406 205.023438 C 119.066406 211.066406 122.371094 217.101562 125.847656 223.105469 C 129.390625 229.21875 133.058594 235.199219 136.824219 241.039062 Z M 188.074219 283.386719 C 181.003906 275.757812 173.945312 267.3125 167.046875 258.234375 C 173.738281 258.496094 180.566406 258.632812 187.5 258.632812 C 194.628906 258.632812 201.675781 258.46875 208.597656 258.167969 C 201.796875 267.40625 194.914062 275.867188 188.074219 283.386719 Z M 259.347656 204.488281 C 264.015625 215.136719 267.964844 225.425781 271.089844 235.226562 C 260.957031 237.53125 250.007812 239.386719 238.484375 240.78125 C 242.117188 235.035156 245.695312 229.097656 249.214844 222.996094 C 252.78125 216.828125 256.152344 210.644531 259.347656 204.488281 Z M 236.273438 215.542969 C 230.8125 225.015625 225.199219 234.050781 219.507812 242.582031 C 209.144531 243.316406 198.425781 243.699219 187.5 243.699219 C 176.621094 243.699219 166.039062 243.371094 155.851562 242.703125 C 149.925781 234.066406 144.199219 225.003906 138.769531 215.625 L 138.773438 215.625 C 133.355469 206.277344 128.371094 196.847656 123.859375 187.472656 C 128.371094 178.082031 133.34375 168.636719 138.726562 159.304688 L 138.726562 159.308594 C 144.121094 149.953125 149.804688 140.929688 155.675781 132.335938 C 166.066406 131.550781 176.730469 131.140625 187.5 131.140625 C 198.328125 131.140625 208.992188 131.554688 219.382812 132.347656 C 225.171875 140.875 230.8125 149.867188 236.230469 159.226562 C 241.707031 168.691406 246.746094 178.066406 251.292969 187.265625 C 246.757812 196.613281 241.734375 206.085938 236.273438 215.542969 Z M 267.074219 48.863281 C 278.789062 55.609375 283.335938 82.820312 275.976562 118.503906 C 275.515625 120.78125 274.980469 123.097656 274.40625 125.449219 C 259.90625 122.101562 244.164062 119.617188 227.683594 118.070312 C 218.074219 104.398438 208.117188 91.96875 198.125 81.207031 C 200.8125 78.625 203.503906 76.164062 206.167969 73.839844 C 231.972656 51.390625 256.097656 42.53125 267.074219 48.863281 Z M 187.5 155.910156 C 204.734375 155.910156 218.714844 169.875 218.714844 187.113281 C 218.714844 204.335938 204.734375 218.3125 187.5 218.3125 C 170.269531 218.3125 156.289062 204.335938 156.289062 187.113281 C 156.289062 169.875 170.269531 155.910156 187.5 155.910156 Z M 187.5 155.910156 " fill-opacity="1" fill-rule="nonzero"/></g></svg>