<svg xmlns="http://www.w3.org/2000/svg" xmlns:xlink="http://www.w3.org/1999/xlink" width="500" zoomAndPan="magnify" viewBox="0 0 375 374.999991" height="500" preserveAspectRatio="xMidYMid meet" version="1.0"><path fill="#543b79" d="M 343.75 0 L 31.25 0 C 14 0 0 13.984375 0 31.25 L 0 343.75 C 0 361.015625 14 375 31.25 375 L 343.75 375 C 361 375 375 361.015625 375 343.75 L 375 31.25 C 375 13.984375 361 0 343.75 0 Z M 278.328125 263.328125 L 278.328125 263.359375 C 275.203125 270.890625 270.25 277.53125 263.90625 282.640625 C 257.34375 287.953125 249.03125 292.328125 238.796875 295.453125 C 228.578125 298.625 216.421875 300.21875 202.34375 300.21875 L 101.84375 300.21875 L 101.84375 81.46875 L 208.125 81.46875 C 227.78125 81.46875 243.53125 85.890625 255.3125 94.90625 C 267.1875 103.96875 273.09375 117.46875 273.09375 135.6875 C 273.09375 146.703125 270.40625 156.15625 265 163.96875 C 259.625 171.734375 251.875 177.8125 241.875 182.03125 L 241.875 182.75 C 255.21875 185.5625 265.546875 191.890625 272.34375 201.734375 C 279.140625 211.578125 282.625 224.015625 282.625 239.03125 C 282.625 247.4375 281 255.4375 277.9375 262.90625 Z M 278.328125 263.328125 " fill-opacity="1" fill-rule="nonzero"/><path fill="#543b79" d="M 234.953125 209.453125 C 228.546875 203.59375 219.546875 200.734375 207.921875 200.734375 L 140.390625 200.734375 L 140.390625 268.984375 L 208.109375 268.984375 C 219.671875 268.984375 228.734375 265.984375 235.140625 259.921875 C 241.546875 253.90625 244.828125 245.328125 244.828125 234.296875 C 244.71875 223.515625 241.546875 215.171875 235.140625 209.453125 Z M 234.953125 209.453125 " fill-opacity="1" fill-rule="nonzero"/><path fill="#543b79" d="M 225.515625 165.34375 L 225.578125 165.34375 C 231.765625 160.09375 234.796875 152.578125 234.796875 142.78125 C 234.796875 131.78125 232.0625 123.96875 226.515625 119.5 C 221.015625 115.046875 213.078125 112.734375 202.640625 112.734375 L 140.140625 112.734375 L 140.140625 173.09375 L 202.640625 173.09375 C 211.75 173.09375 219.515625 170.4375 225.515625 165.34375 Z M 225.515625 165.34375 " fill-opacity="1" fill-rule="nonzero"/></svg>