<svg xmlns="http://www.w3.org/2000/svg" xmlns:xlink="http://www.w3.org/1999/xlink" width="500" zoomAndPan="magnify" viewBox="0 0 375 374.999991" height="500" preserveAspectRatio="xMidYMid meet" version="1.0"><defs><clipPath id="9ede60ab70"><path d="M 8.792969 9.335938 L 366.542969 9.335938 L 366.542969 367.085938 L 8.792969 367.085938 Z M 8.792969 9.335938 " clip-rule="nonzero"/></clipPath></defs><g clip-path="url(#9ede60ab70)"><path fill="#c76495" d="M 187.667969 367.085938 C 286.453125 367.085938 366.542969 286.996094 366.542969 188.210938 C 366.542969 89.429688 286.453125 9.335938 187.667969 9.335938 C 88.886719 9.335938 8.792969 89.429688 8.792969 188.210938 C 8.792969 286.996094 88.886719 367.085938 187.667969 367.085938 Z M 104.359375 110.089844 C 127.449219 88.488281 159.570312 71.929688 189.21875 61.390625 C 239.082031 43.667969 291.773438 54.117188 299.851562 85.910156 L 298.765625 84.914062 C 306.589844 116.214844 279.535156 153.570312 244.894531 166.972656 C 214.039062 179.03125 188.308594 177.03125 177.816406 173.679688 C 165.726562 169.65625 158.796875 161.828125 157.007812 157.355469 C 156.335938 155.566406 155.21875 152.660156 157.007812 151.765625 C 158.125 151.082031 158.570312 151.304688 161.6875 154.660156 C 164.609375 157.804688 176.011719 166.285156 197.925781 163.824219 C 255.386719 157.355469 289.804688 112.847656 278.878906 88.9375 C 271.277344 72.167969 227.214844 64.550781 171.988281 92.066406 C 104.6875 125.605469 100.882812 153.316406 100.4375 163.824219 C 98.871094 192.667969 136.210938 207.875 156.335938 229.5625 C 156.992188 230.011719 157.453125 230.457031 157.902344 231.128906 C 163.921875 228.667969 172.433594 227.550781 185.851562 227.3125 C 218.480469 226.878906 236.828125 248.328125 236.160156 267.558594 C 235.488281 282.777344 221.609375 289.039062 219.152344 289.484375 C 217.378906 289.710938 216.246094 289.710938 216.019531 288.367188 C 215.8125 287.457031 216.484375 287.027344 218.71875 285.667969 C 220.96875 284.328125 227.425781 279.632812 228.765625 271.597656 C 230.121094 263.550781 223.859375 243.871094 192.542969 240.296875 C 181.363281 238.9375 172.660156 239.832031 165.265625 241.84375 C 170.660156 253.695312 171.765625 277.84375 159.242188 296.640625 C 146.273438 315.855469 122.125 327.71875 98.648438 321.222656 C 91.046875 319.222656 79.417969 303.558594 89.480469 281.644531 C 98.871094 260.835938 138.957031 240.726562 144.425781 238.042969 L 144.425781 237.953125 C 125.851562 221.960938 80.6875 200.40625 74.320312 167.449219 C 72.519531 158.101562 76.886719 135.742188 104.359375 110.089844 Z M 104.359375 110.089844 " fill-opacity="1" fill-rule="nonzero"/></g><path fill="#c76495" d="M 110.199219 303.898438 C 116.433594 307.507812 130.949219 303.214844 141.355469 291.902344 C 144.769531 288.175781 147.542969 284.148438 149.628906 279.828125 C 150.015625 278.992188 150.433594 278.113281 150.789062 277.203125 L 151.757812 274.519531 C 154.441406 266.410156 154.726562 257.421875 152.117188 247.808594 L 150.507812 248.71875 L 150.507812 248.761719 C 150.507812 248.761719 131.890625 257.570312 118.90625 271.253906 C 106.832031 284 103.492188 299.996094 110.199219 303.898438 Z M 110.199219 303.898438 " fill-opacity="1" fill-rule="nonzero"/></svg>