<svg xmlns="http://www.w3.org/2000/svg" xmlns:xlink="http://www.w3.org/1999/xlink" width="500" zoomAndPan="magnify" viewBox="0 0 375 374.999991" height="500" preserveAspectRatio="xMidYMid meet" version="1.0"><defs><clipPath id="43590c1849"><path d="M 11 137.496094 L 290 137.496094 L 290 237 L 11 237 Z M 11 137.496094 " clip-rule="nonzero"/></clipPath></defs><path fill="#83cd29" d="M 336.367188 172.804688 C 335.507812 172.804688 334.671875 172.984375 333.933594 173.402344 L 310.523438 186.890625 C 309.007812 187.761719 308.085938 189.40625 308.085938 191.15625 L 308.085938 218.089844 C 308.085938 219.839844 309.007812 221.484375 310.523438 222.355469 L 316.636719 225.871094 C 319.605469 227.332031 320.703125 227.308594 322.054688 227.308594 C 326.453125 227.308594 328.960938 224.648438 328.960938 220.019531 L 328.960938 193.445312 C 328.960938 193.070312 328.636719 192.800781 328.265625 192.800781 L 325.335938 192.800781 C 324.957031 192.800781 324.640625 193.074219 324.640625 193.445312 L 324.640625 220.03125 C 324.640625 222.082031 322.496094 224.144531 319.023438 222.410156 L 312.667969 218.691406 C 312.441406 218.570312 312.269531 218.347656 312.269531 218.097656 L 312.269531 191.164062 C 312.269531 190.90625 312.441406 190.648438 312.667969 190.519531 L 336.027344 177.074219 C 336.246094 176.949219 336.507812 176.949219 336.722656 177.074219 L 360.082031 190.519531 C 360.304688 190.652344 360.480469 190.898438 360.480469 191.164062 L 360.480469 218.097656 C 360.480469 218.355469 360.351562 218.617188 360.132812 218.742188 L 336.722656 232.183594 C 336.515625 232.304688 336.242188 232.304688 336.027344 232.183594 L 330.015625 228.613281 C 329.835938 228.507812 329.589844 228.515625 329.417969 228.613281 C 327.757812 229.550781 327.445312 229.660156 325.890625 230.199219 C 325.507812 230.332031 324.921875 230.539062 326.089844 231.191406 L 333.941406 235.8125 C 334.6875 236.242188 335.523438 236.457031 336.378906 236.457031 C 337.242188 236.457031 338.066406 236.25 338.8125 235.8125 L 362.222656 222.367188 C 363.738281 221.488281 364.65625 219.851562 364.65625 218.105469 L 364.65625 191.167969 C 364.65625 189.421875 363.738281 187.777344 362.222656 186.902344 L 338.8125 173.414062 C 338.078125 172.996094 337.238281 172.816406 336.378906 172.816406 Z M 342.628906 192.050781 C 335.964844 192.050781 331.996094 194.882812 331.996094 199.589844 C 331.996094 204.691406 335.933594 206.101562 342.332031 206.730469 C 349.988281 207.480469 350.582031 208.601562 350.582031 210.105469 C 350.582031 212.714844 348.5 213.824219 343.574219 213.824219 C 337.390625 213.824219 336.027344 212.285156 335.574219 209.207031 C 335.519531 208.878906 335.265625 208.613281 334.929688 208.613281 L 331.886719 208.613281 C 331.699219 208.617188 331.535156 208.683594 331.402344 208.820312 C 331.265625 208.953125 331.195312 209.117188 331.191406 209.304688 C 331.191406 213.238281 333.335938 217.886719 343.570312 217.886719 C 350.976562 217.886719 355.25 214.992188 355.25 209.902344 C 355.25 204.867188 351.796875 203.507812 344.613281 202.558594 C 337.359375 201.59375 336.660156 201.132812 336.660156 199.433594 C 336.660156 198.035156 337.246094 196.160156 342.625 196.160156 C 347.425781 196.160156 349.203125 197.195312 349.929688 200.425781 C 349.996094 200.730469 350.261719 200.976562 350.578125 200.976562 L 353.617188 200.976562 C 353.800781 200.976562 353.984375 200.863281 354.113281 200.730469 C 354.242188 200.585938 354.332031 200.425781 354.3125 200.230469 C 353.84375 194.667969 350.125 192.046875 342.632812 192.046875 Z M 342.628906 192.050781 " fill-opacity="1" fill-rule="nonzero"/><g clip-path="url(#43590c1849)"><path fill="#404137" d="M 198.746094 137.5 C 198.480469 137.5 198.230469 137.566406 198 137.695312 C 197.503906 137.984375 197.257812 138.414062 197.253906 138.988281 L 197.253906 176.929688 C 197.253906 177.304688 197.082031 177.636719 196.757812 177.824219 C 196.410156 178.027344 196.0625 178.027344 195.714844 177.824219 L 189.5 174.253906 C 189.039062 173.988281 188.542969 173.851562 188.007812 173.851562 C 187.476562 173.851562 186.980469 173.988281 186.519531 174.253906 L 161.71875 188.539062 C 160.792969 189.070312 160.226562 190.097656 160.226562 191.164062 L 160.226562 219.734375 C 160.226562 220.265625 160.359375 220.765625 160.625 221.226562 C 160.890625 221.683594 161.257812 222.046875 161.71875 222.3125 L 186.519531 236.597656 C 186.980469 236.867188 187.476562 237 188.011719 237 C 188.542969 237 189.039062 236.867188 189.5 236.597656 L 214.300781 222.3125 C 214.765625 222.046875 215.128906 221.683594 215.394531 221.226562 C 215.660156 220.765625 215.792969 220.265625 215.792969 219.734375 L 215.792969 148.507812 C 215.792969 147.425781 215.203125 146.410156 214.253906 145.882812 L 199.492188 137.644531 C 199.257812 137.515625 199.003906 137.492188 198.746094 137.496094 Z M 39.203125 173.160156 C 38.730469 173.179688 38.285156 173.261719 37.863281 173.507812 L 13.0625 187.792969 C 12.597656 188.058594 12.234375 188.421875 11.96875 188.882812 C 11.703125 189.34375 11.570312 189.839844 11.570312 190.371094 L 11.621094 228.714844 C 11.621094 229.246094 11.898438 229.742188 12.367188 230.003906 C 12.828125 230.277344 13.398438 230.277344 13.859375 230.003906 L 28.570312 221.570312 C 29.5 221.019531 30.109375 220.054688 30.109375 218.992188 L 30.109375 201.085938 C 30.109375 200.015625 30.671875 199.035156 31.601562 198.507812 L 37.863281 194.886719 C 38.324219 194.617188 38.820312 194.484375 39.355469 194.488281 C 39.886719 194.484375 40.386719 194.617188 40.847656 194.886719 L 47.105469 198.503906 C 48.035156 199.035156 48.597656 200.015625 48.597656 201.082031 L 48.597656 218.988281 C 48.597656 220.054688 49.21875 221.023438 50.136719 221.566406 L 64.847656 230 C 65.3125 230.273438 65.882812 230.273438 66.339844 230 C 66.796875 229.738281 67.085938 229.242188 67.085938 228.710938 L 67.136719 190.367188 C 67.136719 189.835938 67.007812 189.339844 66.738281 188.878906 C 66.472656 188.417969 66.109375 188.054688 65.644531 187.789062 L 40.84375 173.511719 C 40.425781 173.265625 39.980469 173.183594 39.5 173.164062 L 39.203125 173.164062 Z M 262.0625 173.507812 C 261.527344 173.507812 261.03125 173.640625 260.570312 173.90625 L 235.769531 188.191406 C 234.84375 188.726562 234.277344 189.703125 234.277344 190.769531 L 234.277344 219.339844 C 234.277344 220.414062 234.882812 221.386719 235.816406 221.917969 L 260.417969 235.910156 C 261.328125 236.425781 262.4375 236.46875 263.351562 235.957031 L 278.261719 227.675781 C 278.734375 227.414062 279.054688 226.925781 279.054688 226.386719 C 279.058594 225.847656 278.777344 225.363281 278.3125 225.097656 L 253.359375 210.8125 C 252.894531 210.546875 252.566406 210.007812 252.566406 209.472656 L 252.566406 200.539062 C 252.566406 200.003906 252.898438 199.515625 253.359375 199.25 L 261.113281 194.785156 C 261.574219 194.519531 262.140625 194.519531 262.605469 194.785156 L 270.375 199.25 C 270.609375 199.382812 270.789062 199.5625 270.921875 199.792969 C 271.054688 200.023438 271.121094 200.273438 271.121094 200.539062 L 271.121094 207.582031 C 271.121094 207.847656 271.1875 208.097656 271.320312 208.328125 C 271.453125 208.558594 271.636719 208.738281 271.867188 208.871094 C 272.332031 209.136719 272.894531 209.140625 273.359375 208.871094 L 288.21875 200.238281 C 289.140625 199.703125 289.710938 198.726562 289.710938 197.660156 L 289.710938 190.769531 C 289.710938 190.234375 289.578125 189.738281 289.308594 189.277344 C 289.042969 188.820312 288.679688 188.457031 288.21875 188.1875 L 263.566406 173.902344 C 263.105469 173.636719 262.609375 173.503906 262.074219 173.507812 Z M 187.90625 194.835938 C 188.046875 194.835938 188.179688 194.871094 188.304688 194.9375 L 196.804688 199.847656 C 197.035156 199.980469 197.199219 200.226562 197.199219 200.492188 L 197.199219 210.3125 C 197.199219 210.578125 197.035156 210.824219 196.804688 210.957031 L 188.304688 215.867188 C 188.074219 215.996094 187.789062 215.996094 187.558594 215.867188 L 179.058594 210.957031 C 178.828125 210.824219 178.660156 210.578125 178.660156 210.3125 L 178.660156 200.492188 C 178.660156 200.226562 178.828125 199.984375 179.058594 199.847656 L 187.558594 194.9375 C 187.675781 194.871094 187.777344 194.839844 187.90625 194.839844 Z M 187.90625 194.835938 " fill-opacity="1" fill-rule="nonzero"/></g><path fill="#83cd29" d="M 113.703125 173.359375 C 113.171875 173.359375 112.671875 173.488281 112.210938 173.753906 L 87.410156 187.992188 C 86.484375 188.523438 85.921875 189.550781 85.921875 190.621094 L 85.921875 219.1875 C 85.917969 219.722656 86.050781 220.21875 86.316406 220.679688 C 86.585938 221.140625 86.949219 221.503906 87.410156 221.765625 L 112.210938 236.050781 C 112.671875 236.320312 113.167969 236.453125 113.703125 236.453125 C 114.234375 236.453125 114.734375 236.320312 115.195312 236.050781 L 139.996094 221.765625 C 140.457031 221.503906 140.820312 221.140625 141.085938 220.679688 C 141.355469 220.21875 141.488281 219.722656 141.484375 219.1875 L 141.484375 190.621094 C 141.484375 189.550781 140.921875 188.527344 139.992188 187.992188 L 115.191406 173.757812 C 114.730469 173.488281 114.234375 173.359375 113.699219 173.359375 Z M 262.011719 198.855469 C 261.914062 198.855469 261.804688 198.855469 261.714844 198.902344 L 256.945312 201.679688 C 256.75 201.789062 256.648438 201.953125 256.644531 202.175781 L 256.644531 207.632812 C 256.644531 207.835938 256.765625 208.023438 256.945312 208.128906 L 261.714844 210.855469 C 261.898438 210.96875 262.078125 210.96875 262.261719 210.855469 L 267.03125 208.128906 C 267.207031 208.027344 267.328125 207.835938 267.328125 207.632812 L 267.328125 202.175781 C 267.328125 201.96875 267.210938 201.78125 267.03125 201.679688 L 262.261719 198.902344 C 262.171875 198.847656 262.109375 198.851562 262.011719 198.851562 Z M 262.011719 198.855469 " fill-opacity="1" fill-rule="nonzero"/></svg>